<svg width="249" height="739" viewBox="0 0 249 739" fill="none" xmlns="http://www.w3.org/2000/svg">
<path d="M485.503 100.153C505.736 112.894 527.245 114.513 540.573 104.972C564.864 87.5726 558.829 35.3922 535.705 10.7676C506.667 -20.1543 449.823 -8.54233 423.919 21.8264C386.618 65.5519 407.768 154.87 455.344 187.292C510.842 225.104 598.211 182.715 630.799 113.877C660.487 51.1841 645.643 -35.3298 591.537 -77.2614C526.25 -127.843 438.166 -86.8994 395.327 -41.2125C330.539 27.8715 332.183 147.297 383.074 228.702C429.174 302.426 516.917 346.954 589.061 328.46C720.154 294.847 791.128 55.3732 698.749 -73.1079C646.844 -145.29 556.125 -169.295 486.163 -162.582C478.8 -161.87 349.999 -147.215 292.41 -28.3177C230.97 98.5274 304.994 231.721 323.861 265.675C340.807 296.172 405.388 412.364 527.514 432.217C675.407 456.248 778.808 318.044 792.236 299.489C882.02 175.426 901.303 -33.5267 783.364 -179.982C685.77 -301.17 524.423 -342.056 395.396 -288.095C261.766 -232.201 214.521 -96.183 203.346 -64.0395C144.58 105.125 201.196 291.419 300.301 409.237C319.728 432.333 470.992 607.174 639.821 564.067C747.459 536.581 803.685 435.447 851 350.36C891.715 277.134 957.519 158.776 932.131 1.12908C899.244 -203.012 740.284 -306.368 721.122 -318.38C681.832 -343.006 555.173 -413.526 401.163 -369.576C381.925 -364.084 236.651 -319.976 158.058 -167.738C63.5708 15.2989 138.526 213.115 169.857 295.804C195.577 363.675 306.561 656.577 536.186 683.915C729.674 706.952 873.109 525.453 913.888 473.86C949.436 428.866 1038.28 313.014 1045.45 135.444C1046.49 109.736 1052.26 -122.154 883.189 -289.344C776.878 -394.471 658.887 -417.199 588.395 -430.783C508.961 -446.082 353.35 -476.063 215.888 -379.365C128.999 -318.249 89.6678 -234.87 65.9366 -184.551C43.5308 -137.066 -24.927 8.06682 13.9442 176.348C30.156 246.527 75.3697 311.274 165.814 440.775C260.57 576.464 307.96 644.303 371.816 682.21C513.837 766.488 664.276 729.293 695.078 721.689C903.481 670.171 1005.87 484.482 1034.27 424.942" stroke="white" stroke-opacity="0.4" stroke-width="4" stroke-miterlimit="10"/>
</svg>
