<svg width="91" height="91" viewBox="0 0 91 91" fill="none" xmlns="http://www.w3.org/2000/svg">
<path d="M44.1235 1.07505C44.2937 -0.35786 46.373 -0.35786 46.5431 1.07505L47.9694 13.0958C49.8112 28.6179 62.0492 40.8559 77.5711 42.6976L89.5919 44.1239C91.0249 44.2941 91.0249 46.3733 89.5919 46.5435L77.5711 47.9698C62.0492 49.8116 49.8112 62.0495 47.9694 77.5715L46.5431 89.5922C46.373 91.0253 44.2937 91.0253 44.1235 89.5922L42.6972 77.5715C40.8555 62.0495 28.6175 49.8116 13.0955 47.9698L1.07468 46.5435C-0.358226 46.3733 -0.358226 44.2941 1.07468 44.1239L13.0955 42.6976C28.6175 40.8559 40.8555 28.6179 42.6972 13.0958L44.1235 1.07505Z" fill="#FFDADA"/>
</svg>
