<svg width="361" height="28" viewBox="0 0 361 28" fill="none" xmlns="http://www.w3.org/2000/svg">
<path d="M2.66675 2C20.473 2 20.473 26 38.2793 26C56.0855 26 56.0855 2 73.8918 2C91.6981 2 91.6981 26 109.463 26C127.269 26 127.269 2 145.033 2C162.84 2 162.84 26 180.604 26C198.411 26 198.411 2 216.216 2C234.023 2 234.023 26 251.829 26C269.635 26 269.635 2 287.441 2C305.248 2 305.248 26 323.055 26C340.86 26 340.86 2 358.667 2" stroke="#D9F0FF" stroke-width="4" stroke-miterlimit="10" stroke-linecap="round"/>
</svg>
