<svg width="161" height="160" viewBox="0 0 161 160" fill="none" xmlns="http://www.w3.org/2000/svg">
<circle cx="80.7898" cy="80.7903" r="43.4568" fill="#FDACAC"/>
<path d="M76.4393 27.4178C77.1292 22.7522 83.8587 22.7522 84.5487 27.4178C85.1402 31.4177 90.5564 32.2275 92.3037 28.5812C94.3404 24.3307 100.773 26.3019 100.053 30.9598C99.4358 34.9542 104.374 37.3225 107.118 34.3553C110.316 30.8981 115.885 34.6685 113.822 38.902C112.053 42.5336 116.072 46.2515 119.566 44.2254C123.637 41.8652 127.846 47.1052 124.628 50.539C121.867 53.4852 124.608 58.2218 128.542 57.3134C133.125 56.2551 135.596 62.5018 131.511 64.8346C128.005 66.8365 129.222 72.1685 133.248 72.456C137.941 72.7911 138.447 79.4878 133.856 80.5164C129.917 81.399 129.509 86.8522 133.274 88.3105C137.66 90.0098 136.154 96.5553 131.464 96.1898C127.439 95.8761 125.438 100.968 128.607 103.469C132.299 106.384 128.922 112.192 124.546 110.464C120.79 108.981 117.372 113.256 119.663 116.582C122.333 120.459 117.389 125.014 113.713 122.073C110.558 119.549 106.029 122.626 107.236 126.482C108.644 130.978 102.576 133.881 99.9283 129.984C97.6567 126.64 92.4209 128.246 92.4341 132.289C92.4495 137.004 85.7949 138.001 84.4155 133.493C83.2325 129.626 77.7555 129.626 76.5724 133.493C75.1931 138.001 68.5384 137.004 68.5538 132.289C68.5671 128.246 63.3312 126.64 61.0596 129.984C58.4123 133.881 52.3442 130.978 53.7519 126.482C54.9591 122.626 50.4296 119.549 47.2745 122.073C43.599 125.014 38.6549 120.459 41.3253 116.582C43.6164 113.256 40.1982 108.981 36.442 110.464C32.0663 112.192 28.6884 106.384 32.3809 103.469C35.5494 100.968 33.5485 95.8761 29.5237 96.1898C24.8339 96.5553 23.3278 90.0099 27.7142 88.3105C31.4784 86.8522 31.0707 81.399 27.1316 80.5164C22.5409 79.4878 23.0471 72.7911 27.7396 72.456C31.7661 72.1685 32.9827 66.8365 29.4773 64.8346C25.3926 62.5018 27.8628 56.2551 32.4462 57.3134C36.3803 58.2218 39.1206 53.4852 36.3598 50.539C33.1421 47.1053 37.3505 41.8652 41.4215 44.2254C44.9163 46.2516 48.9353 42.5335 47.166 38.902C45.1033 34.6685 50.6718 30.8981 53.8695 34.3553C56.6139 37.3225 61.5521 34.9542 60.9347 30.9599C60.2146 26.3019 66.6475 24.3307 68.6843 28.5812C70.4315 32.2276 75.8477 31.4177 76.4393 27.4178Z" fill="#FDACAC"/>
<g clip-path="url(#clip0_443_298)">
<path d="M56.6283 88.7504L55.1727 89.2981L55.485 87.7024L54.2941 87.4917L54.0612 89.0506L52.8756 88.0131L52.1081 88.94L53.3731 89.9564L51.9229 90.4778L52.3304 91.5943L53.7754 91.0413L53.4737 92.6318L54.6699 92.853L54.8922 91.2994L56.0831 92.3316L56.8453 91.3942L55.575 90.383L57.0412 89.8669L56.6283 88.7504Z" fill="#635D5D"/>
<path d="M69.2564 84.517L80.5064 95.767C80.6822 95.9426 80.9205 96.0412 81.1689 96.0412C81.4173 96.0412 81.6556 95.9426 81.8314 95.767L93.0814 84.517C93.247 84.3393 93.3371 84.1042 93.3329 83.8613C93.3286 83.6185 93.2302 83.3867 93.0584 83.215C92.8867 83.0432 92.6549 82.9448 92.412 82.9405C92.1692 82.9362 91.9341 83.0264 91.7564 83.192L82.1064 92.8404V67.6045C82.1064 67.3559 82.0076 67.1174 81.8318 66.9416C81.656 66.7658 81.4175 66.667 81.1689 66.667C80.9203 66.667 80.6818 66.7658 80.506 66.9416C80.3302 67.1174 80.2314 67.3559 80.2314 67.6045V92.8404L70.5814 83.192C70.4037 83.0264 70.1686 82.9362 69.9257 82.9405C69.6829 82.9448 69.4511 83.0432 69.2794 83.215C69.1076 83.3867 69.0092 83.6185 69.0049 83.8613C69.0006 84.1042 69.0908 84.3393 69.2564 84.517Z" fill="#635D5D"/>
<path d="M57.8191 106.92L59.4811 108.126L61.3918 105.519L64.7211 107.936L65.6897 106.609L62.3658 104.192L63.7525 102.307L67.5158 105.04L68.4897 103.713L63.0591 99.7681L57.8191 106.92Z" fill="#635D5D"/>
<path d="M77.4242 106.772C76.8471 106.368 76.1905 106.09 75.4975 105.956L71.7395 105.14L69.8394 113.782L71.8507 114.219L72.38 111.812L74.132 112.191H74.2273L75.3652 114.967L77.5354 115.441L76.1856 112.281C76.7655 112.176 77.3014 111.903 77.7259 111.496C78.1538 111.064 78.4414 110.513 78.5516 109.916C78.6982 109.327 78.6669 108.708 78.4616 108.136C78.2564 107.591 77.8959 107.117 77.4242 106.772ZM76.5456 109.474C76.5107 109.683 76.4294 109.882 76.3076 110.056C76.1859 110.23 76.0267 110.375 75.8416 110.48C75.3775 110.689 74.8532 110.724 74.3648 110.58L72.7293 110.222L73.391 107.209L75.0265 107.567C75.5303 107.636 75.9925 107.883 76.3285 108.263C76.4498 108.436 76.5307 108.635 76.5655 108.843C76.6003 109.052 76.588 109.265 76.5297 109.469L76.5456 109.474Z" fill="#635D5D"/>
<path d="M86.4911 113.261L86.073 111.254L90.1168 110.427L89.794 108.868L85.7501 109.695L85.3637 107.815L89.9422 106.878L89.6087 105.266L83.0295 106.614L84.8186 115.283L91.5618 113.898L91.2284 112.292L86.4911 113.261Z" fill="#635D5D"/>
<path d="M99.0567 108.373L97.8711 106.699L101.253 104.339L100.332 103.033L96.9554 105.392L95.8439 103.823L99.6707 101.148L98.7233 99.8047L93.2239 103.644L98.3316 110.885L103.963 106.951L103.016 105.608L99.0567 108.373Z" fill="#635D5D"/>
<path d="M109.51 89.2932L108.759 88.3399L107.568 89.3669L107.351 87.8027L106.155 88.0134L106.446 89.6091L105.001 89.0351L104.572 90.1463L106.033 90.6888L104.747 91.6841L105.498 92.6216L106.705 91.6051L106.912 93.1588L108.102 92.9639L107.822 91.3682L109.262 91.9264L109.685 90.8204L108.235 90.2885L109.51 89.2932Z" fill="#635D5D"/>
<path d="M54.4422 77.9753L47.3338 76.7587L48.0113 72.8246L55.125 74.0412L55.4691 72.0346L46.7092 70.5337L45.333 78.4808L54.0982 79.9818L54.4422 77.9753Z" fill="#635D5D"/>
<path d="M52.2668 64.0188C52.8938 65.1145 53.9307 65.919 55.1514 66.2571C55.7316 66.4089 56.3368 66.4412 56.9299 66.3519C57.5378 66.2588 58.1209 66.0457 58.6448 65.7252C59.213 65.3785 59.7118 64.9303 60.1163 64.4033C60.5246 63.8905 60.8333 63.3065 61.0267 62.6811C61.2064 62.1023 61.2711 61.4941 61.2172 60.8905C61.1591 60.2952 60.979 59.7181 60.6879 59.1947C60.3833 58.6448 59.9669 58.1641 59.4652 57.7833C58.9857 57.4 58.4312 57.1201 57.8371 56.9614C57.243 56.8028 56.6222 56.7688 56.0142 56.8617C55.4109 56.9537 54.8318 57.1631 54.3099 57.4778C53.1825 58.178 52.3406 59.2527 51.9333 60.5114C51.7518 61.0953 51.687 61.709 51.7428 62.3178C51.7975 62.9147 51.9759 63.4939 52.2668 64.0188ZM53.7171 60.8589C53.8275 60.4995 54.0073 60.165 54.2464 59.8741C54.4765 59.5752 54.7622 59.3231 55.0879 59.1315C55.3958 58.9504 55.7384 58.8356 56.0936 58.7945C56.4493 58.7564 56.8091 58.7886 57.1522 58.8893C57.9113 59.127 58.5581 59.6303 58.973 60.306C59.1584 60.6173 59.2773 60.9633 59.3223 61.3224C59.3659 61.6756 59.3371 62.0339 59.2376 62.3757C59.1273 62.7351 58.9475 63.0697 58.7083 63.3605C58.4783 63.6595 58.1926 63.9116 57.8667 64.1031C57.559 64.2843 57.2164 64.3992 56.8611 64.4402C56.5051 64.477 56.1452 64.443 55.8025 64.3401C55.0456 64.1038 54.4005 63.6023 53.987 62.9287C53.8016 62.6173 53.6827 62.2713 53.6377 61.9122C53.5916 61.5577 53.6187 61.1975 53.7171 60.8537V60.8589Z" fill="#635D5D"/>
<path d="M65.1922 53.9022C65.3493 54.3543 65.4644 54.8197 65.5362 55.2926C65.5999 55.6428 65.5836 56.0028 65.4886 56.3459C65.4466 56.4809 65.3742 56.6047 65.277 56.7078C65.1798 56.8109 65.0603 56.8906 64.9276 56.941L64.6735 57.0569L66.1079 60.2536L67.844 59.4742L67.0871 57.8047L72.8088 55.2346L73.5657 56.9041L75.3018 56.1247L73.8568 52.9332L72.7241 53.4598L69.7547 46.9136L63.5249 49.7101L64.5835 52.2749C64.8164 52.8472 65.0193 53.3896 65.1922 53.9022ZM68.5903 49.2414L70.8663 54.2656L67.23 55.8982C67.2674 55.7749 67.2905 55.6476 67.2988 55.519C67.3134 55.1656 67.2831 54.8117 67.2088 54.4657C67.1178 54.0247 66.9976 53.5901 66.8489 53.1649C66.6901 52.7015 66.5137 52.2152 66.3196 51.7061L65.8221 50.5159L68.5903 49.2414Z" fill="#635D5D"/>
<path d="M84.6968 52.4591L85.3637 54.4024L87.5179 54.5341L84.1039 45.4599L82.0767 45.3335L77.5671 53.9179L79.6843 54.0495L80.5947 52.2063L84.6968 52.4591ZM82.9501 47.398L84.1463 50.8633L81.3251 50.6895L82.9501 47.398Z" fill="#635D5D"/>
<path d="M95.6426 55.7664C96.2444 56.1324 96.9173 56.3675 97.6169 56.4563C98.203 56.5286 98.7975 56.4279 99.3265 56.1666C99.8543 55.871 100.293 55.44 100.596 54.9185C100.9 54.397 101.057 53.8041 101.052 53.2016C101.017 52.6142 100.809 52.05 100.454 51.5795C100.027 51.0201 99.4858 50.5571 98.8661 50.2207L95.5368 48.3037L91.0801 55.9612L92.8638 56.9882L94.0918 54.8816L95.6426 55.7664ZM96.4789 50.7737L97.9292 51.6111C98.3873 51.8284 98.7517 52.2022 98.956 52.6644C99.0217 52.8665 99.0411 53.0807 99.0127 53.2912C98.9843 53.5017 98.9089 53.7032 98.7919 53.8809C98.6955 54.0686 98.5579 54.2323 98.3894 54.3599C98.2208 54.4876 98.0255 54.5758 97.8181 54.6183C97.3122 54.6743 96.803 54.5472 96.3836 54.2601L94.9334 53.4228L96.4789 50.7737Z" fill="#635D5D"/>
<path d="M101.761 64.2769L104.71 62.2493L105.514 63.4079L103.889 67.3315L105.218 69.2432L107.293 64.1926L112.48 64.1347L111.241 62.3599L106.959 62.4863L106.117 61.275L109.071 59.2421L107.907 57.5674L100.597 62.6022L101.761 64.2769Z" fill="#635D5D"/>
<path d="M106.742 74.5466L113.073 77.8961L107.351 78.7282L107.642 80.7295L116.444 79.455L116.164 77.5538L109.823 74.2043L115.555 73.3722L115.259 71.3604L106.462 72.6348L106.742 74.5466Z" fill="#635D5D"/>
</g>
<defs>
<clipPath id="clip0_443_298">
<rect width="71.1111" height="70.1235" fill="white" transform="translate(45.333 45.3335)"/>
</clipPath>
</defs>
</svg>
