<svg width="147" height="760" viewBox="0 0 147 760" fill="none" xmlns="http://www.w3.org/2000/svg">
<path d="M-163.89 412.606C-172.819 400.051 -185.424 393.402 -195.984 395.202C-215.234 398.491 -225.192 429.404 -217.612 449.404C-208.092 474.518 -170.637 483.168 -147.026 473.027C-113.03 458.427 -102.538 402.625 -122.893 371.72C-146.64 335.675 -210.611 336.162 -248.304 366.122C-282.638 393.405 -296.218 445.95 -274.389 483.937C-248.045 529.766 -184.018 530.282 -146.156 516.058C-88.8963 494.554 -58.7374 427.05 -68.3218 367.753C-77.0086 314.049 -118.532 265.627 -167.049 256.758C-255.21 240.648 -360.665 356.187 -338.235 452.992C-325.63 507.38 -276.951 545.071 -232.83 559.973C-228.184 561.538 -146.357 587.683 -80.463 536.284C-10.1633 481.449 -20.2475 386.896 -22.8159 362.794C-25.1233 341.145 -33.9236 258.66 -102.707 214.918C-186.005 161.952 -284.681 211.968 -297.653 218.803C-384.393 264.512 -450.581 376.706 -417.36 490.426C-389.869 584.528 -302.82 650.549 -210.602 654.681C-115.091 658.956 -50.9957 595.182 -35.8423 580.114C43.8773 500.8 58.1882 381.074 28.9032 288.461C23.1634 270.307 -22.835 131.752 -136.327 110.902C-208.685 97.6111 -269.12 139.399 -319.971 174.554C-363.731 204.808 -434.46 253.712 -460.21 349.017C-493.547 472.433 -424.241 572.898 -415.769 584.758C-398.399 609.073 -340.087 682.477 -235.351 698.899C-222.267 700.949 -122.779 714.951 -35.4668 650.434C69.5055 572.863 75.7156 441.772 78.3118 386.975C80.4409 341.997 89.6358 147.893 -42.2984 71.2581C-153.469 6.6825 -287.684 70.3265 -325.84 88.4159C-359.106 104.196 -443.133 145.544 -493.8 243.347C-501.134 257.508 -565.127 386.187 -506.346 525.199C-469.386 612.607 -403.857 656.86 -364.709 683.302C-320.594 713.093 -234.173 771.459 -125.698 753.843C-57.1324 742.711 -11.5611 706.385 15.9376 684.461C41.8945 663.775 121.215 600.543 141.573 495.668C150.063 451.931 139.571 403.505 118.579 306.643C96.5899 205.156 85.5869 154.412 56.8033 116.083C-7.22251 30.8521 -108.035 11.5902 -128.673 7.63985C-268.326 -19.0482 -378.778 57.9012 -411.509 83.7579" stroke="white" stroke-opacity="0.4" stroke-width="4" stroke-miterlimit="10"/>
</svg>
