<svg width="1057" height="823" viewBox="0 0 1057 823" fill="none" xmlns="http://www.w3.org/2000/svg">
<path d="M664.067 503.538C644.093 518.371 633.747 538.982 636.96 556.035C642.827 587.119 692.946 602.34 724.96 589.473C765.16 573.316 778 512.393 760.96 474.448C736.426 419.811 646.173 404.456 596.96 438.335C539.56 477.858 542.227 581.461 591.627 641.635C636.613 696.446 721.706 716.896 782.293 680.423C855.386 636.406 854.333 532.683 830.293 471.773C793.946 379.659 684.253 332.793 588.96 350.06C502.653 365.709 425.827 434.39 412.96 513.235C389.587 656.508 578.92 823.923 734.293 784.748C821.586 762.733 880.906 682.777 903.626 610.873C906.013 603.303 945.746 469.994 860.96 364.773C770.506 252.516 618.4 271.629 579.627 276.498C544.8 280.871 412.107 297.55 343.627 410.248C260.707 546.726 344.227 705.086 355.627 725.898C431.853 865.051 614.64 968.962 796.96 911.81C947.826 864.516 1051.68 721.578 1055.63 572.085C1059.71 417.256 955.026 315.312 930.293 291.21C800.106 164.415 606.707 144.754 458.293 194.91C429.2 204.741 207.227 283.319 176.96 467.76C157.667 585.353 226.8 682.014 284.96 763.348C335.013 833.339 415.92 946.465 570.293 985.373C770.2 1035.74 930.093 920.531 948.96 906.46C987.64 877.61 1104.24 781.003 1127.63 610.873C1130.55 589.62 1150.19 428.063 1043.63 288.535C915.506 120.786 704.027 114.58 615.627 111.985C543.067 109.859 229.933 100.67 110.293 316.623C9.47983 498.59 116.013 714.114 146.293 775.385C172.706 828.805 241.827 963.692 400.96 1042.89C424 1054.35 633.293 1154.22 855.626 1054.92C995.426 992.488 1064.83 885.047 1106.29 820.86C1153.01 748.528 1244.55 606.833 1212.96 431.648C1193 320.916 1133.11 248.17 1096.96 204.273C1062.85 162.837 958.6 36.2159 788.96 6.32277C718.213 -6.14273 640.467 12.2747 484.96 49.1228C322.027 87.723 240.56 107.037 179.627 154.785C44.1332 260.996 16.0532 424.853 10.2932 458.398C-28.6135 685.385 98.6665 862.029 141.307 914.285" stroke="white" stroke-opacity="0.4" stroke-width="4" stroke-miterlimit="10"/>
</svg>
