<svg width="332" height="331" viewBox="0 0 332 331" fill="none" xmlns="http://www.w3.org/2000/svg">
<path d="M166 0L166.032 165.171L229.271 12.5852L166.092 165.196L282.908 48.4251L166.137 165.241L318.748 102.063L166.163 165.301L331.333 165.333L166.163 165.365L318.748 228.604L166.137 165.425L282.908 282.241L166.092 165.471L229.271 318.081L166.032 165.496L166 330.667L165.968 165.496L102.729 318.081L165.908 165.471L49.0918 282.241L165.863 165.425L13.2519 228.604L165.837 165.365L0.666748 165.333L165.837 165.301L13.2519 102.063L165.863 165.241L49.0918 48.4251L165.908 165.196L102.729 12.5852L165.968 165.171L166 0Z" fill="#F0C3D2" stroke="#FFDADA" stroke-width="4"/>
</svg>
