<svg id="Слой_1" data-name="Слой 1" xmlns="http://www.w3.org/2000/svg" viewBox="0 0 424.26 424.26"><defs><style>.cls-1{fill:#fff;}.cls-2{fill:#635d5d;}</style></defs><title>Footer_logo_DDC</title><rect class="cls-1" x="850.05" y="850.41" width="300" height="300" transform="translate(-1202.41 211.88) rotate(-45)"/><path class="cls-2" d="M999.44,1148.29l-56.21-56.21,16.8-16.8q8.48-8.48,17-11.91a36.16,36.16,0,0,1,16.31-2.86,38.12,38.12,0,0,1,14.7,4.09,47.86,47.86,0,0,1,12.14,8.78,38.39,38.39,0,0,1,9,13.52,36.36,36.36,0,0,1,2.41,14.7A38.16,38.16,0,0,1,1028,1116a44.28,44.28,0,0,1-9,12.72Zm.38-21.77,6.57-6.57a35.08,35.08,0,0,0,6.53-8.74,23.85,23.85,0,0,0,2.67-9.17,19.84,19.84,0,0,0-1.57-9.2,27.49,27.49,0,0,0-6.11-8.78q-5.5-5.5-10.77-7.18a21.17,21.17,0,0,0-9.81-1,23,23,0,0,0-8,2.75,26.63,26.63,0,0,0-5.38,3.93l-9,9Z" transform="translate(-787.92 -788.28)"/><path class="cls-2" d="M1096.18,1002.2a30.19,30.19,0,0,1,2.92,4.81,43.78,43.78,0,0,1,3.24,8.59,39.55,39.55,0,0,1,1.3,11.23,44.74,44.74,0,0,1-3.4,16.8,36.69,36.69,0,0,1-8.7,12.53,38.19,38.19,0,0,1-12.64,7.83,42.63,42.63,0,0,1-15.23,2.7,48.28,48.28,0,0,1-16.63-2.75A38,38,0,0,1,1034,1056a35.47,35.47,0,0,1-8.53-12.26,40,40,0,0,1-3-15.77,42.67,42.67,0,0,1,2.16-14.15,49,49,0,0,1,4.64-10L1044,1010a45.13,45.13,0,0,0-4.27,7.18,23,23,0,0,0-2.21,10.32,20.79,20.79,0,0,0,1.89,8.7,22.68,22.68,0,0,0,5.35,7.34,26,26,0,0,0,8,5,26.64,26.64,0,0,0,10,1.84,31.32,31.32,0,0,0,10.48-1.67,23.28,23.28,0,0,0,8.15-4.81,21.24,21.24,0,0,0,5.24-7.51,25.3,25.3,0,0,0,1.84-9.88,26.33,26.33,0,0,0-2.05-10.91,24.89,24.89,0,0,0-4.32-6.91Z" transform="translate(-787.92 -788.28)"/><path class="cls-2" d="M927.67,1076.52l-56.21-56.21,16.8-16.8q8.48-8.48,17-11.91a36.16,36.16,0,0,1,16.31-2.86,38.12,38.12,0,0,1,14.7,4.09,47.86,47.86,0,0,1,12.14,8.78,38.39,38.39,0,0,1,9,13.52,36.36,36.36,0,0,1,2.41,14.7,38.16,38.16,0,0,1-3.59,14.44,44.28,44.28,0,0,1-9,12.72Zm.38-21.77,6.57-6.57a35.08,35.08,0,0,0,6.53-8.74,23.85,23.85,0,0,0,2.67-9.17,19.84,19.84,0,0,0-1.57-9.2,27.49,27.49,0,0,0-6.11-8.78q-5.5-5.5-10.77-7.18a21.17,21.17,0,0,0-9.81-1,23,23,0,0,0-8,2.75,26.63,26.63,0,0,0-5.38,3.93l-9,9Z" transform="translate(-787.92 -788.28)"/><polygon class="cls-2" points="161.22 161.01 194.36 194.59 197.48 120.4 197.93 119.95 212.78 134.8 211.9 155.6 208.16 229.31 207.86 229.61 150.24 172 161.22 161.01"/></svg>