<svg width="54" height="54" viewBox="0 0 54 54" fill="none" xmlns="http://www.w3.org/2000/svg">
<path d="M37.7778 5.19506L37.7779 5.19507C40.3914 5.31557 41.8128 5.74985 42.7641 6.11907L42.7643 6.11915C44.0196 6.60941 44.922 7.19561 45.8652 8.13615L45.8653 8.13625C46.8087 9.07962 47.3922 9.98207 47.8824 11.2372L47.8826 11.2377C48.2489 12.1886 48.6886 13.6099 48.8065 16.2211M37.7778 5.19506L48.7066 16.2256M37.7778 5.19506C34.9648 5.06696 34.1203 5.04029 26.9999 5.04029C19.8769 5.04029 19.035 5.06696 16.2194 5.19506L37.7778 5.19506ZM48.8065 16.2211L48.7066 16.2256M48.8065 16.2211C48.8065 16.2211 48.8065 16.2211 48.8065 16.2211L48.7066 16.2256M48.8065 16.2211C48.9346 19.0367 48.9612 19.8786 48.9612 27.0016C48.9612 34.122 48.9346 34.9665 48.8065 37.7796C48.686 40.3927 48.2492 41.8139 47.8828 42.7649M48.7066 16.2256C48.8346 19.039 48.8612 19.879 48.8612 27.0016C48.8612 34.1216 48.8346 34.9643 48.7066 37.775C48.5866 40.3776 48.1519 41.7883 47.7892 42.7296M47.8828 42.7649C47.8829 42.7647 47.883 42.7645 47.8831 42.7643L47.7892 42.7296M47.8828 42.7649C47.8827 42.7651 47.8826 42.7654 47.8826 42.7656L47.7892 42.7296M47.8828 42.7649L47.7892 42.7296M9.56843 1.82858L9.56945 1.82818C11.2541 1.1739 13.182 0.725086 16.0099 0.594855C18.8529 0.466959 19.7579 0.434961 26.9999 0.434961C34.242 0.434961 35.147 0.466959 37.99 0.594855C40.8179 0.725086 42.7457 1.1739 44.4304 1.82818L44.4314 1.82857C46.1978 2.49237 47.7981 3.53364 49.1206 4.87972L49.1218 4.88096C50.4678 6.20349 51.5091 7.80376 52.173 9.57014L52.1734 9.57116C52.8276 11.2559 53.2765 13.1837 53.4067 16.0116C53.5346 18.8546 53.5666 19.7596 53.5666 27.0016C53.5666 34.2437 53.5346 35.1487 53.4067 37.9917C53.2765 40.8196 52.8276 42.7474 52.1734 44.4321L52.173 44.4331C51.5091 46.1995 50.4678 47.7998 49.1218 49.1223L49.1206 49.1235C47.7981 50.4696 46.1978 51.5108 44.4314 52.1747L44.4304 52.1751C42.7457 52.8294 40.8179 53.2782 37.99 53.4084C35.147 53.5363 34.242 53.5683 26.9999 53.5683C19.7579 53.5683 18.8529 53.5363 16.0099 53.4084C13.182 53.2782 11.2541 52.8294 9.56946 52.1751L9.56844 52.1747C7.80209 51.5107 6.20183 50.4695 4.87926 49.1235L4.87801 49.1223C3.53207 47.7997 2.49081 46.1995 1.82686 44.4331L1.82647 44.4321C1.17219 42.7474 0.723377 40.8196 0.593147 37.9917C0.462586 35.1487 0.433252 34.2439 0.433252 27.0016C0.433252 19.7594 0.462586 18.8546 0.593146 16.0116C0.723377 13.1837 1.17219 11.2559 1.82647 9.57117L1.82686 9.57014C2.49074 7.80376 3.532 6.20349 4.878 4.88096L4.87802 4.88097L4.87925 4.87971C6.20173 3.53364 7.80201 2.49237 9.56843 1.82858ZM45.8647 45.8676C45.8649 45.8674 45.8651 45.8672 45.8653 45.867L45.7946 45.7963L45.8643 45.868C45.8644 45.8679 45.8645 45.8678 45.8647 45.8676ZM37.7804 48.8082C37.7804 48.8082 37.7805 48.8082 37.7805 48.8082L37.7759 48.7083L37.7804 48.8082ZM11.2365 47.8845C11.2368 47.8846 11.237 47.8847 11.2373 47.8848L11.2719 47.791L11.236 47.8843C11.2362 47.8843 11.2363 47.8844 11.2365 47.8845ZM8.13453 45.867C8.13488 45.8673 8.13523 45.8677 8.13558 45.868L8.20525 45.7963L8.13352 45.866C8.13386 45.8663 8.13419 45.8667 8.13453 45.867ZM6.11706 42.765C6.11716 42.7653 6.11726 42.7656 6.11736 42.7658L6.21059 42.7296L6.11677 42.7642C6.11686 42.7645 6.11696 42.7648 6.11706 42.765ZM20.6444 33.3571C22.33 35.0427 24.6162 35.9896 26.9999 35.9896C29.3837 35.9896 31.6698 35.0427 33.3554 33.3571C35.041 31.6715 35.9879 29.3854 35.9879 27.0016C35.9879 24.6179 35.041 22.3317 33.3554 20.6462C31.6698 18.9606 29.3837 18.0136 26.9999 18.0136C24.6162 18.0136 22.33 18.9606 20.6444 20.6462C18.9589 22.3317 18.0119 24.6179 18.0119 27.0016C18.0119 29.3854 18.9589 31.6715 20.6444 33.3571ZM21.798 14.443C23.4472 13.7599 25.2148 13.4083 26.9999 13.4083C30.6051 13.4083 34.0626 14.8404 36.6119 17.3897C39.1611 19.9389 40.5933 23.3965 40.5933 27.0016C40.5933 30.6068 39.1611 34.0643 36.6119 36.6136C34.0626 39.1628 30.6051 40.595 26.9999 40.595C25.2148 40.595 23.4472 40.2434 21.798 39.5602C20.1488 38.8771 18.6502 37.8758 17.388 36.6136C16.1257 35.3513 15.1244 33.8528 14.4413 32.2036C13.7582 30.5544 13.4066 28.7867 13.4066 27.0016C13.4066 25.2165 13.7582 23.4489 14.4413 21.7997C15.1244 20.1505 16.1257 18.6519 17.388 17.3897C18.6502 16.1274 20.1488 15.1262 21.798 14.443ZM44.3346 12.767C44.3346 13.1741 44.2544 13.5772 44.0986 13.9533C43.9428 14.3294 43.7145 14.6711 43.4266 14.959C43.1388 15.2469 42.797 15.4752 42.4209 15.631C42.0448 15.7868 41.6417 15.867 41.2346 15.867C40.8275 15.867 40.4244 15.7868 40.0483 15.631C39.6722 15.4752 39.3304 15.2469 39.0425 14.959C38.7547 14.6711 38.5263 14.3294 38.3706 13.9533C38.2148 13.5772 38.1346 13.1741 38.1346 12.767C38.1346 11.9448 38.4612 11.1563 39.0425 10.5749C39.6239 9.99357 40.4124 9.66696 41.2346 9.66696C42.0568 9.66696 42.8452 9.99357 43.4266 10.5749C44.008 11.1563 44.3346 11.9448 44.3346 12.767Z" fill="#635D5D" stroke="white" stroke-width="0.2"/>
</svg>
