<svg width="54" height="54" viewBox="0 0 54 54" fill="none" xmlns="http://www.w3.org/2000/svg">
<path d="M18.4938 29.8777L18.3549 29.9587L11.7567 27.9011L11.7558 27.9008C11.4086 27.7947 11.1618 27.6593 11.009 27.5148C10.8587 27.3727 10.8046 27.2285 10.8186 27.0893C10.8331 26.9444 10.9245 26.7719 11.1342 26.5861C11.3428 26.4013 11.6573 26.2138 12.0897 26.0398C12.09 26.0397 12.0903 26.0396 12.0906 26.0395L38.0434 16.0136L38.046 16.0125C38.7788 15.7137 39.2883 15.7795 39.5648 16.0712C39.8507 16.3727 39.9596 16.9835 39.7185 17.9438L39.7184 17.9437L39.7173 17.9492L35.2959 38.8025L35.2958 38.803C35.1453 39.5258 34.8617 39.9285 34.5085 40.0883C34.1563 40.2476 33.6797 40.1906 33.0812 39.8618L26.2866 34.8331L26.1845 34.7575L26.0931 34.8457L22.9225 37.907L22.9224 37.9071L22.9006 37.9283C22.5828 38.2358 22.3522 38.459 21.9162 38.5169L21.9153 38.5171C21.6858 38.549 21.4997 38.5276 21.3385 38.4226C21.1747 38.3159 21.0124 38.1071 20.8677 37.7114L18.5489 30.0595L18.4938 29.8777ZM26.6667 48.485C32.3644 48.485 37.8288 46.2215 41.8577 42.1926C45.8866 38.1637 48.15 32.6994 48.15 27.0016C48.15 21.3039 45.8866 15.8395 41.8577 11.8106C37.8288 7.78171 32.3644 5.51829 26.6667 5.51829C20.9689 5.51829 15.5046 7.78171 11.4757 11.8106C7.44675 15.8395 5.18333 21.3039 5.18333 27.0016C5.18333 32.6994 7.44675 38.1637 11.4757 42.1926C15.5046 46.2215 20.9689 48.485 26.6667 48.485ZM26.6667 53.5183C12.0215 53.5183 0.15 41.6468 0.15 27.0016C0.15 12.3565 12.0215 0.484961 26.6667 0.484961C41.3118 0.484961 53.1833 12.3565 53.1833 27.0016C53.1833 41.6468 41.3118 53.5183 26.6667 53.5183Z" fill="#635D5D" stroke="white" stroke-width="0.3"/>
</svg>
