<svg width="54" height="54" viewBox="0 0 54 54" fill="none" xmlns="http://www.w3.org/2000/svg">
<path d="M27.4406 0.33512C12.8075 0.33512 0.881154 12.2017 0.881154 26.7617C0.881154 31.4284 2.11398 35.9617 4.41884 39.9617L0.666748 53.6683L14.7371 49.9883C18.6232 52.095 22.9917 53.215 27.4406 53.215C42.0738 53.215 54.0001 41.3483 54.0001 26.7884C54.0001 19.7217 51.2396 13.0817 46.2279 8.0951C43.7708 5.62557 40.8441 3.66756 37.6185 2.33525C34.393 1.00294 30.9331 0.323014 27.4406 0.33512ZM27.4674 4.78844C33.3636 4.78844 38.8845 7.08177 43.0654 11.2418C45.1173 13.2827 46.7441 15.7066 47.8524 18.3744C48.9608 21.0423 49.529 23.9016 49.5244 26.7884C49.5244 38.895 39.6081 48.735 27.4406 48.735C23.4741 48.735 19.588 47.695 16.2111 45.6683L15.4071 45.215L7.04531 47.4016L9.26976 39.295L8.73375 38.4417C6.51985 34.9448 5.34886 30.8946 5.35686 26.7617C5.38367 14.6551 15.2731 4.78844 27.4674 4.78844ZM18.0336 14.5484C17.6048 14.5484 16.8812 14.7084 16.2647 15.3751C15.6751 16.0417 13.9331 17.6684 13.9331 20.8951C13.9331 24.1484 16.3183 27.2684 16.6131 27.7217C16.9884 28.175 21.3301 34.8417 28.0034 37.6683C29.5847 38.3883 30.8175 38.7883 31.7823 39.0817C33.3636 39.5883 34.8108 39.5083 35.9632 39.3483C37.2497 39.1617 39.8761 37.7483 40.4389 36.2017C41.0018 34.655 41.0018 33.3484 40.841 33.055C40.6533 32.7884 40.2245 32.6284 39.5545 32.335C38.8845 31.9617 35.6148 30.3617 35.0252 30.1484C34.4088 29.935 34.0336 29.8284 33.5244 30.4684C33.0956 31.135 31.8091 32.6284 31.4339 33.055C31.0319 33.5084 30.6567 33.5617 30.0135 33.2417C29.3167 32.895 27.1726 32.2017 24.6533 29.9617C22.6701 28.2017 21.3569 26.0417 20.9549 25.375C20.6332 24.735 20.9281 24.335 21.2497 24.0417C21.5445 23.7484 21.9733 23.2684 22.2413 22.8684C22.5897 22.4951 22.6969 22.2017 22.9113 21.7751C23.1257 21.3217 23.0185 20.9484 22.8577 20.6284C22.6969 20.3351 21.3569 17.0284 20.7941 15.7217C20.258 14.4417 19.722 14.6017 19.2932 14.5751C18.918 14.5751 18.4892 14.5484 18.0336 14.5484Z" fill="#635D5D"/>
</svg>
