<svg width="54" height="54" viewBox="0 0 54 54" fill="none" xmlns="http://www.w3.org/2000/svg">
<mask id="path-1-inside-1_362_866" fill="white">
<path fill-rule="evenodd" clip-rule="evenodd" d="M26.9999 0.334961C19.7572 0.334961 18.8506 0.366961 16.0053 0.494961C13.1679 0.625627 11.2293 1.07629 9.53325 1.73496C7.75322 2.40388 6.14059 3.45318 4.80792 4.80963C3.45154 6.14236 2.40225 7.75496 1.73325 9.53496C1.07459 11.231 0.623918 13.1696 0.493252 16.007C0.362585 18.8523 0.333252 19.759 0.333252 27.0016C0.333252 34.2443 0.362585 35.151 0.493252 37.9963C0.623918 40.8336 1.07459 42.7723 1.73325 44.4683C2.40233 46.2482 3.4516 47.8608 4.80792 49.1936C6.1407 50.5499 7.75329 51.5992 9.53325 52.2683C11.2293 52.927 13.1679 53.3776 16.0053 53.5083C18.8506 53.6363 19.7572 53.6683 26.9999 53.6683C34.2426 53.6683 35.1492 53.6363 37.9946 53.5083C40.8319 53.3776 42.7706 52.927 44.4666 52.2683C46.2466 51.5993 47.8592 50.55 49.1919 49.1936C50.5483 47.8609 51.5976 46.2483 52.2666 44.4683C52.9253 42.7723 53.3759 40.8336 53.5066 37.9963C53.6346 35.151 53.6666 34.2443 53.6666 27.0016C53.6666 19.759 53.6346 18.8523 53.5066 16.007C53.3759 13.1696 52.9253 11.231 52.2666 9.53496C51.5976 7.75496 50.5483 6.14236 49.1919 4.80963C47.8592 3.45318 46.2466 2.40388 44.4666 1.73496C42.7706 1.07629 40.8319 0.625627 37.9946 0.494961C35.1492 0.366961 34.2426 0.334961 26.9999 0.334961ZM26.9999 5.14029C34.1199 5.14029 34.9626 5.16696 37.7733 5.29496C40.3759 5.41496 41.7866 5.84696 42.7279 6.21229C43.9706 6.69763 44.8613 7.27629 45.7946 8.20696C46.7279 9.1403 47.3039 10.031 47.7892 11.2736C48.1519 12.215 48.5892 13.6256 48.7066 16.2256C48.8346 19.039 48.8612 19.879 48.8612 27.0016C48.8612 34.1216 48.8346 34.9643 48.7066 37.775C48.5866 40.3776 48.1519 41.7883 47.7892 42.7296C47.3617 43.888 46.6802 44.9359 45.7946 45.7963C44.8613 46.7296 43.9706 47.3056 42.7279 47.791C41.7866 48.1536 40.3759 48.591 37.7759 48.7083C34.9653 48.8363 34.1226 48.863 26.9999 48.863C19.8799 48.863 19.0346 48.8363 16.2266 48.7083C13.6239 48.5883 12.2133 48.1536 11.2719 47.791C10.1135 47.3636 9.06557 46.682 8.20525 45.7963C7.31954 44.936 6.63794 43.8881 6.21059 42.7296C5.84525 41.7883 5.41058 40.3776 5.29325 37.7776C5.16525 34.9643 5.13859 34.1243 5.13859 27.0016C5.13859 19.8816 5.16525 19.039 5.29325 16.2283C5.41325 13.6256 5.84525 12.215 6.21059 11.2736C6.69592 10.031 7.27459 9.1403 8.20525 8.20696C9.13859 7.27363 10.0293 6.69763 11.2719 6.21229C12.2133 5.84696 13.6239 5.41229 16.2239 5.29496C19.0373 5.16696 19.8773 5.14029 26.9999 5.14029ZM26.9999 35.8896C24.6427 35.8896 22.382 34.9532 20.7152 33.2864C19.0483 31.6196 18.1119 29.3589 18.1119 27.0016C18.1119 24.6444 19.0483 22.3837 20.7152 20.7169C22.382 19.05 24.6427 18.1136 26.9999 18.1136C29.3572 18.1136 31.6179 19.05 33.2847 20.7169C34.9515 22.3837 35.8879 24.6444 35.8879 27.0016C35.8879 29.3589 34.9515 31.6196 33.2847 33.2864C31.6179 34.9532 29.3572 35.8896 26.9999 35.8896ZM26.9999 13.3083C25.2017 13.3083 23.4211 13.6625 21.7597 14.3506C20.0984 15.0388 18.5888 16.0474 17.3173 17.319C16.0457 18.5905 15.0371 20.1001 14.3489 21.7614C13.6608 23.4228 13.3066 25.2034 13.3066 27.0016C13.3066 28.7999 13.6608 30.5805 14.3489 32.2418C15.0371 33.9032 16.0457 35.4127 17.3173 36.6843C18.5888 37.9558 20.0984 38.9645 21.7597 39.6526C23.4211 40.3408 25.2017 40.695 26.9999 40.695C30.6316 40.695 34.1146 39.2523 36.6826 36.6843C39.2506 34.1163 40.6932 30.6333 40.6932 27.0016C40.6932 23.3699 39.2506 19.887 36.6826 17.319C34.1146 14.751 30.6316 13.3083 26.9999 13.3083ZM44.4346 12.767C44.4346 13.1872 44.3518 13.6033 44.191 13.9915C44.0302 14.3798 43.7945 14.7326 43.4973 15.0297C43.2002 15.3269 42.8474 15.5626 42.4592 15.7234C42.0709 15.8842 41.6548 15.967 41.2346 15.967C40.8144 15.967 40.3982 15.8842 40.01 15.7234C39.6218 15.5626 39.269 15.3269 38.9718 15.0297C38.6747 14.7326 38.439 14.3798 38.2782 13.9915C38.1174 13.6033 38.0346 13.1872 38.0346 12.767C38.0346 11.9183 38.3717 11.1043 38.9718 10.5042C39.572 9.9041 40.3859 9.56696 41.2346 9.56696C42.0833 9.56696 42.8972 9.9041 43.4973 10.5042C44.0974 11.1043 44.4346 11.9183 44.4346 12.767Z"/>
</mask>
<path fill-rule="evenodd" clip-rule="evenodd" d="M26.9999 0.334961C19.7572 0.334961 18.8506 0.366961 16.0053 0.494961C13.1679 0.625627 11.2293 1.07629 9.53325 1.73496C7.75322 2.40388 6.14059 3.45318 4.80792 4.80963C3.45154 6.14236 2.40225 7.75496 1.73325 9.53496C1.07459 11.231 0.623918 13.1696 0.493252 16.007C0.362585 18.8523 0.333252 19.759 0.333252 27.0016C0.333252 34.2443 0.362585 35.151 0.493252 37.9963C0.623918 40.8336 1.07459 42.7723 1.73325 44.4683C2.40233 46.2482 3.4516 47.8608 4.80792 49.1936C6.1407 50.5499 7.75329 51.5992 9.53325 52.2683C11.2293 52.927 13.1679 53.3776 16.0053 53.5083C18.8506 53.6363 19.7572 53.6683 26.9999 53.6683C34.2426 53.6683 35.1492 53.6363 37.9946 53.5083C40.8319 53.3776 42.7706 52.927 44.4666 52.2683C46.2466 51.5993 47.8592 50.55 49.1919 49.1936C50.5483 47.8609 51.5976 46.2483 52.2666 44.4683C52.9253 42.7723 53.3759 40.8336 53.5066 37.9963C53.6346 35.151 53.6666 34.2443 53.6666 27.0016C53.6666 19.759 53.6346 18.8523 53.5066 16.007C53.3759 13.1696 52.9253 11.231 52.2666 9.53496C51.5976 7.75496 50.5483 6.14236 49.1919 4.80963C47.8592 3.45318 46.2466 2.40388 44.4666 1.73496C42.7706 1.07629 40.8319 0.625627 37.9946 0.494961C35.1492 0.366961 34.2426 0.334961 26.9999 0.334961ZM26.9999 5.14029C34.1199 5.14029 34.9626 5.16696 37.7733 5.29496C40.3759 5.41496 41.7866 5.84696 42.7279 6.21229C43.9706 6.69763 44.8613 7.27629 45.7946 8.20696C46.7279 9.1403 47.3039 10.031 47.7892 11.2736C48.1519 12.215 48.5892 13.6256 48.7066 16.2256C48.8346 19.039 48.8612 19.879 48.8612 27.0016C48.8612 34.1216 48.8346 34.9643 48.7066 37.775C48.5866 40.3776 48.1519 41.7883 47.7892 42.7296C47.3617 43.888 46.6802 44.9359 45.7946 45.7963C44.8613 46.7296 43.9706 47.3056 42.7279 47.791C41.7866 48.1536 40.3759 48.591 37.7759 48.7083C34.9653 48.8363 34.1226 48.863 26.9999 48.863C19.8799 48.863 19.0346 48.8363 16.2266 48.7083C13.6239 48.5883 12.2133 48.1536 11.2719 47.791C10.1135 47.3636 9.06557 46.682 8.20525 45.7963C7.31954 44.936 6.63794 43.8881 6.21059 42.7296C5.84525 41.7883 5.41058 40.3776 5.29325 37.7776C5.16525 34.9643 5.13859 34.1243 5.13859 27.0016C5.13859 19.8816 5.16525 19.039 5.29325 16.2283C5.41325 13.6256 5.84525 12.215 6.21059 11.2736C6.69592 10.031 7.27459 9.1403 8.20525 8.20696C9.13859 7.27363 10.0293 6.69763 11.2719 6.21229C12.2133 5.84696 13.6239 5.41229 16.2239 5.29496C19.0373 5.16696 19.8773 5.14029 26.9999 5.14029ZM26.9999 35.8896C24.6427 35.8896 22.382 34.9532 20.7152 33.2864C19.0483 31.6196 18.1119 29.3589 18.1119 27.0016C18.1119 24.6444 19.0483 22.3837 20.7152 20.7169C22.382 19.05 24.6427 18.1136 26.9999 18.1136C29.3572 18.1136 31.6179 19.05 33.2847 20.7169C34.9515 22.3837 35.8879 24.6444 35.8879 27.0016C35.8879 29.3589 34.9515 31.6196 33.2847 33.2864C31.6179 34.9532 29.3572 35.8896 26.9999 35.8896ZM26.9999 13.3083C25.2017 13.3083 23.4211 13.6625 21.7597 14.3506C20.0984 15.0388 18.5888 16.0474 17.3173 17.319C16.0457 18.5905 15.0371 20.1001 14.3489 21.7614C13.6608 23.4228 13.3066 25.2034 13.3066 27.0016C13.3066 28.7999 13.6608 30.5805 14.3489 32.2418C15.0371 33.9032 16.0457 35.4127 17.3173 36.6843C18.5888 37.9558 20.0984 38.9645 21.7597 39.6526C23.4211 40.3408 25.2017 40.695 26.9999 40.695C30.6316 40.695 34.1146 39.2523 36.6826 36.6843C39.2506 34.1163 40.6932 30.6333 40.6932 27.0016C40.6932 23.3699 39.2506 19.887 36.6826 17.319C34.1146 14.751 30.6316 13.3083 26.9999 13.3083ZM44.4346 12.767C44.4346 13.1872 44.3518 13.6033 44.191 13.9915C44.0302 14.3798 43.7945 14.7326 43.4973 15.0297C43.2002 15.3269 42.8474 15.5626 42.4592 15.7234C42.0709 15.8842 41.6548 15.967 41.2346 15.967C40.8144 15.967 40.3982 15.8842 40.01 15.7234C39.6218 15.5626 39.269 15.3269 38.9718 15.0297C38.6747 14.7326 38.439 14.3798 38.2782 13.9915C38.1174 13.6033 38.0346 13.1872 38.0346 12.767C38.0346 11.9183 38.3717 11.1043 38.9718 10.5042C39.572 9.9041 40.3859 9.56696 41.2346 9.56696C42.0833 9.56696 42.8972 9.9041 43.4973 10.5042C44.0974 11.1043 44.4346 11.9183 44.4346 12.767Z" fill="#635D5D" stroke="white" stroke-width="0.4" mask="url(#path-1-inside-1_362_866)"/>
</svg>
