<svg width="35" height="35" viewBox="0 0 35 35" fill="none" xmlns="http://www.w3.org/2000/svg">
<path id="Vector" d="M17.5 0C7.83508 0 0 7.83508 0 17.5C0 27.1655 7.83508 35 17.5 35C27.1655 35 35 27.1655 35 17.5C35 7.83508 27.1655 0 17.5 0ZM17.5 32.847C9.0568 32.847 2.1875 25.9432 2.1875 17.4999C2.1875 9.05673 9.0568 2.18743 17.5 2.18743C25.9432 2.18743 32.8125 9.05676 32.8125 17.4999C32.8125 25.9431 25.9432 32.847 17.5 32.847ZM24.4841 11.0966L14.2165 21.4287L9.5927 16.8049C9.16559 16.3778 8.47325 16.3778 8.04559 16.8049C7.61848 17.232 7.61848 17.9244 8.04559 18.3515L13.4591 23.7655C13.8862 24.1921 14.5786 24.1921 15.0062 23.7655C15.0554 23.7163 15.0976 23.6627 15.1359 23.607L26.0318 12.6437C26.4584 12.2166 26.4584 11.5243 26.0318 11.0966C25.6041 10.6695 24.9118 10.6695 24.4841 11.0966Z" fill="#635D5D"/>
</svg>
