<svg width="74" height="37" viewBox="0 0 74 37" fill="none" xmlns="http://www.w3.org/2000/svg">
<g clip-path="url(#clip0_132_61)">
<path d="M72.7102 16.235C73.2122 15.4037 73.5531 14.4847 73.7149 13.5265C73.9249 12.306 74.0237 11.0689 74.0102 9.8305C74.0102 8.73286 73.9848 7.73129 73.9339 6.82577C73.8967 5.98545 73.7272 5.15633 73.4316 4.36918C73.1423 3.63113 72.6766 2.97574 72.0753 2.46073C71.4551 1.92333 70.573 1.4699 69.4291 1.10044C68.0092 0.681927 66.5513 0.406499 65.077 0.278225C62.9209 0.0777643 60.7562 -0.0137189 58.591 0.00414129H34.8031V16.64H16.1167C14.2507 16.64 12.6795 16.6071 11.4029 16.5413C10.3417 16.5007 9.28518 16.3794 8.2423 16.1785C7.55748 16.0614 6.90298 15.8078 6.3174 15.4329C5.86561 15.1168 5.51628 14.6747 5.31276 14.1613C5.08514 13.5534 4.95954 12.912 4.94105 12.2629C4.90488 11.524 4.88679 10.6427 4.88679 9.61891V3.3011H0.687394V9.61891C0.680307 10.7187 0.742719 11.8179 0.874256 12.9098C0.970364 13.783 1.22648 14.6309 1.62974 15.4107C2.01029 16.1139 2.56889 16.704 3.24923 17.1217C3.9498 17.561 4.88278 17.868 6.04817 18.0427C5.03029 18.1711 4.04508 18.4882 3.14274 18.9777C2.38497 19.4097 1.74626 20.024 1.28415 20.7653C0.782103 21.5965 0.441239 22.5155 0.279503 23.4738C0.069404 24.6942 -0.0294533 25.9313 -0.0158566 27.1697C-0.0158566 28.2674 0.00958308 29.269 0.060485 30.1745C0.0976998 31.0148 0.267236 31.8439 0.562806 32.6311C0.852066 33.3691 1.31783 34.0245 1.91907 34.5395C2.53927 35.0769 3.42136 35.5303 4.56531 35.8998C5.98513 36.3184 7.44306 36.5939 8.91742 36.722C11.0735 36.9226 13.2382 37.0141 15.4034 36.9961H39.1813V20.3562H57.8676C59.7349 20.3562 61.3062 20.3891 62.5814 20.4549C63.6426 20.4955 64.6992 20.6168 65.7421 20.8177C66.4269 20.9348 67.0814 21.1884 67.6669 21.5633C68.1187 21.8794 68.4681 22.3215 68.6716 22.8349C68.8992 23.4428 69.0248 24.0843 69.0433 24.7333C69.0795 25.4722 69.0975 26.3536 69.0975 27.3773V33.6951H73.297V27.3813C73.3047 26.2815 73.2429 25.1824 73.1121 24.0904C73.0159 23.2172 72.7598 22.3694 72.3566 21.5895C71.9761 20.8864 71.4175 20.2962 70.7371 19.8785C70.0366 19.4392 69.1036 19.1322 67.9382 18.9576C68.9573 18.8303 69.9439 18.5139 70.8476 18.0245C71.6071 17.5925 72.2473 16.9774 72.7102 16.235ZM10.7077 33.4231C9.64846 33.4002 8.59221 33.3012 7.54709 33.1268C6.87226 33.0274 6.22047 32.8084 5.6222 32.4799C5.1809 32.2192 4.83018 31.8288 4.61756 31.3614C4.38825 30.8116 4.26222 30.2241 4.24583 29.6283C4.20966 28.9405 4.19158 28.1216 4.19158 27.1717C4.19158 26.148 4.20966 25.2667 4.24583 24.5277C4.26425 23.8787 4.38986 23.2372 4.61756 22.6294C4.82108 22.116 5.1704 21.6738 5.6222 21.3577C6.2076 20.9825 6.86216 20.7289 7.54709 20.6121C8.58998 20.4113 9.64655 20.29 10.7077 20.2494C11.9843 20.1835 13.5555 20.1506 15.4215 20.1506H34.8031V33.4896H15.4215C13.5555 33.4896 11.9843 33.468 10.7077 33.425V33.4231ZM69.7465 12.4644C69.7282 13.1135 69.6026 13.755 69.3748 14.3628C69.1713 14.8762 68.822 15.3183 68.3702 15.6344C67.7848 16.0097 67.1302 16.2632 66.4453 16.3801C65.4024 16.5809 64.3458 16.7021 63.2847 16.7428C62.0081 16.8086 60.4369 16.8416 58.5709 16.8416H39.1893V3.51068H58.5709C60.4369 3.51068 62.0081 3.53285 63.2847 3.57719C64.3439 3.60004 65.4002 3.69903 66.4453 3.87342C67.1202 3.97265 67.772 4.19171 68.3702 4.52032C68.8116 4.78091 69.1623 5.1714 69.3748 5.63879C69.6041 6.18859 69.7302 6.77616 69.7465 7.3719C69.7827 8.05977 69.8008 8.87863 69.8008 9.82849C69.8008 10.8536 69.7827 11.7349 69.7465 12.4725V12.4644Z" fill="black"/>
</g>
<defs>
<clipPath id="clip0_132_61">
<rect width="74" height="37" fill="white"/>
</clipPath>
</defs>
</svg>
