<svg width="404" height="454" viewBox="0 0 404 454" fill="none" xmlns="http://www.w3.org/2000/svg">
<path d="M-153.594 -83.7956C-173.568 -69.0089 -183.914 -48.4623 -180.701 -31.4623C-174.834 -0.475597 -124.714 14.6977 -92.7011 1.87107C-52.5011 -14.2356 -39.6611 -74.9689 -56.7011 -112.796C-81.2344 -167.262 -171.488 -182.569 -220.701 -148.796C-278.101 -109.396 -275.434 -6.1156 -226.034 53.8711C-181.048 108.511 -95.9544 128.898 -35.3677 92.5377C37.7256 48.6577 36.6723 -54.7423 12.6323 -115.462C-23.7144 -207.289 -133.408 -254.009 -228.701 -236.796C-315.008 -221.196 -391.834 -152.729 -404.701 -74.1289C-428.074 68.6977 -238.741 235.591 -83.3677 196.538C3.9256 174.591 63.2456 94.8844 85.9656 23.2044C88.3523 15.6577 128.086 -117.236 43.2989 -222.129C-47.1544 -334.036 -199.261 -314.982 -238.034 -310.129C-272.861 -305.769 -405.554 -289.142 -474.034 -176.796C-556.954 -40.7423 -473.434 117.124 -462.034 137.871C-385.808 276.591 -203.021 380.178 -20.7011 323.204C130.166 276.058 234.019 133.564 237.966 -15.4623C242.046 -169.809 137.366 -271.436 112.632 -295.462C-17.5544 -421.862 -210.954 -441.462 -359.368 -391.462C-388.461 -381.662 -610.434 -303.329 -640.701 -119.462C-659.994 -2.2356 -590.861 94.1244 -532.701 175.204C-482.648 244.978 -401.741 357.751 -247.368 396.538C-47.461 446.751 112.432 331.898 131.299 317.871C169.979 289.111 286.579 192.804 309.966 23.2044C312.886 2.01774 332.526 -159.036 225.966 -298.129C97.8456 -465.356 -113.634 -471.542 -202.034 -474.129C-274.594 -476.249 -587.728 -485.409 -707.368 -270.129C-808.181 -88.7289 -701.648 126.124 -671.368 187.204C-644.954 240.458 -575.834 374.924 -416.701 453.871C-393.661 465.298 -184.368 564.858 37.9656 465.871C177.766 403.631 247.166 296.524 288.632 232.538C335.352 160.431 426.886 19.1777 395.299 -155.462C375.339 -265.849 315.446 -338.369 279.299 -382.129C245.192 -423.436 140.939 -549.662 -28.7011 -579.462C-99.4477 -591.889 -177.194 -573.529 -332.701 -536.796C-495.634 -498.316 -577.101 -479.062 -638.034 -431.462C-773.528 -325.582 -801.608 -162.236 -807.368 -128.796C-846.274 97.4844 -718.994 273.578 -676.354 325.671" stroke="white" stroke-opacity="0.4" stroke-width="4" stroke-miterlimit="10"/>
</svg>
