<svg width="526" height="454" viewBox="0 0 526 454" fill="none" xmlns="http://www.w3.org/2000/svg">
<path d="M663.072 473.538C643.099 488.324 632.752 508.871 635.966 525.871C641.832 556.858 691.952 572.031 723.966 559.204C764.166 543.098 777.006 482.364 759.966 444.538C735.432 390.071 645.179 374.764 595.966 408.538C538.566 447.938 541.232 551.218 590.632 611.204C635.619 665.844 720.712 686.231 781.299 649.871C854.392 605.991 853.339 502.591 829.299 441.871C792.952 350.044 683.259 303.324 587.966 320.538C501.659 336.138 424.832 404.604 411.966 483.204C388.592 626.031 577.926 792.924 733.299 753.871C820.592 731.924 879.912 652.218 902.632 580.538C905.019 572.991 944.752 440.098 859.966 335.204C769.512 223.298 617.406 242.351 578.632 247.204C543.806 251.564 411.112 268.191 342.632 380.538C259.712 516.591 343.232 674.458 354.632 695.204C430.859 833.924 613.646 937.511 795.966 880.538C946.832 833.391 1050.69 690.898 1054.63 541.871C1058.71 387.524 954.032 285.898 929.299 261.871C799.112 135.471 605.712 115.871 457.299 165.871C428.206 175.671 206.232 254.004 175.966 437.871C156.672 555.098 225.806 651.458 283.966 732.538C334.019 802.311 414.926 915.084 569.299 953.871C769.206 1004.08 929.099 889.231 947.966 875.204C986.646 846.444 1103.25 750.138 1126.63 580.538C1129.55 559.351 1149.19 398.298 1042.63 259.204C914.512 91.9777 703.032 85.791 614.632 83.2044C542.072 81.0844 228.939 71.9244 109.299 287.204C8.48569 468.604 115.019 683.458 145.299 744.538C171.712 797.791 240.832 932.258 399.966 1011.2C423.006 1022.63 632.299 1122.19 854.632 1023.2C994.432 960.964 1063.83 853.858 1105.3 789.871C1152.02 717.764 1243.55 576.511 1211.97 401.871C1192.01 291.484 1132.11 218.964 1095.97 175.204C1061.86 133.898 957.606 7.67104 787.966 -22.129C717.219 -34.5556 639.472 -16.1956 483.966 20.5377C321.032 59.0177 239.566 78.271 178.632 125.871C43.139 231.751 15.059 395.098 9.29902 428.538C-29.6076 654.818 97.6724 830.911 140.312 883.004" stroke="white" stroke-opacity="0.4" stroke-width="4" stroke-miterlimit="10"/>
</svg>
