<svg width="68" height="68" viewBox="0 0 68 68" fill="none" xmlns="http://www.w3.org/2000/svg">
<path d="M33.1105 1.45671C33.2357 0.403102 34.7645 0.403102 34.8896 1.45671L35.9384 10.2955C37.2926 21.7088 46.2911 30.7073 57.7043 32.0615L66.5431 33.1103C67.5968 33.2354 67.5968 34.7643 66.5431 34.8894L57.7043 35.9381C46.2911 37.2924 37.2926 46.2909 35.9384 57.7041L34.8896 66.5429C34.7645 67.5966 33.2357 67.5966 33.1105 66.5429L32.0618 57.7041C30.7075 46.2909 21.709 37.2924 10.2958 35.9381L1.45695 34.8894C0.403346 34.7643 0.403346 33.2354 1.45695 33.1103L10.2958 32.0615C21.709 30.7073 30.7075 21.7088 32.0618 10.2955L33.1105 1.45671Z" fill="#FFDADA"/>
</svg>
