<svg width="67" height="68" viewBox="0 0 67 68" fill="none" xmlns="http://www.w3.org/2000/svg">
<path d="M32.777 1.45671C32.9022 0.403102 34.431 0.403102 34.5561 1.45671L35.6049 10.2955C36.9591 21.7088 45.9576 30.7073 57.3708 32.0615L66.2096 33.1103C67.2634 33.2354 67.2634 34.7643 66.2096 34.8894L57.3708 35.9381C45.9576 37.2924 36.9591 46.2909 35.6049 57.7041L34.5561 66.5429C34.431 67.5966 32.9022 67.5966 32.777 66.5429L31.7283 57.7041C30.374 46.2909 21.3755 37.2924 9.96226 35.9381L1.12346 34.8894C0.0698502 34.7643 0.0698502 33.2354 1.12346 33.1103L9.96226 32.0615C21.3755 30.7073 30.374 21.7088 31.7283 10.2955L32.777 1.45671Z" fill="#D7ECFA" fill-opacity="0.7"/>
</svg>
