<svg width="46" height="46" viewBox="0 0 46 46" fill="none" xmlns="http://www.w3.org/2000/svg">
<path d="M23.0925 0.00013701C10.4714 0.00013701 0.184925 10.2351 0.184925 22.7931C0.184925 26.8181 1.24824 30.728 3.23618 34.178L0 46L12.1357 42.826C15.4874 44.643 19.2553 45.609 23.0925 45.609C35.7136 45.609 46 35.374 46 22.8161C46 16.7211 43.6191 10.9941 39.2965 6.69312C37.1772 4.56315 34.653 2.87436 31.8709 1.72525C29.0889 0.576134 26.1047 -0.0103042 23.0925 0.00013701ZM23.1156 3.84113C28.201 3.84113 32.9628 5.81912 36.5688 9.40711C38.3386 11.1674 39.7417 13.258 40.6977 15.559C41.6536 17.8601 42.1437 20.3262 42.1397 22.8161C42.1397 33.258 33.5869 41.745 23.0925 41.745C19.6714 41.745 16.3196 40.848 13.407 39.1L12.7136 38.709L5.50151 40.595L7.4201 33.603L6.95779 32.867C5.0483 29.851 4.03832 26.3577 4.04523 22.7931C4.06834 12.3511 12.598 3.84113 23.1156 3.84113ZM14.9789 12.2591C14.609 12.2591 13.9849 12.3971 13.4533 12.9721C12.9447 13.5471 11.4422 14.9501 11.4422 17.7331C11.4422 20.5391 13.4995 23.2301 13.7538 23.6211C14.0774 24.0121 17.8221 29.762 23.5779 32.2C24.9417 32.821 26.005 33.166 26.8372 33.419C28.201 33.856 29.4492 33.787 30.4432 33.649C31.5528 33.488 33.8181 32.269 34.3035 30.935C34.7889 29.601 34.7889 28.4741 34.6502 28.2211C34.4884 27.9911 34.1186 27.8531 33.5407 27.6001C32.9628 27.2781 30.1427 25.8981 29.6342 25.7141C29.1025 25.5301 28.7789 25.4381 28.3397 25.9901C27.9698 26.5651 26.8603 27.8531 26.5367 28.2211C26.1899 28.6121 25.8663 28.6581 25.3116 28.3821C24.7106 28.0831 22.8613 27.4851 20.6884 25.5531C18.9779 24.0351 17.8452 22.1721 17.4985 21.5971C17.2211 21.0451 17.4754 20.7001 17.7528 20.4471C18.007 20.1941 18.3769 19.7801 18.608 19.4351C18.9085 19.1131 19.001 18.8601 19.1859 18.4921C19.3709 18.1011 19.2784 17.7791 19.1397 17.5031C19.001 17.2501 17.8452 14.3981 17.3598 13.2711C16.8975 12.1671 16.4352 12.3051 16.0653 12.2821C15.7417 12.2821 15.3719 12.2591 14.9789 12.2591Z" fill="#635D5D"/>
</svg>
