<svg width="361" height="30" viewBox="0 0 361 30" fill="none" xmlns="http://www.w3.org/2000/svg">
<path d="M2.6665 2.37109C20.4728 2.37109 20.4728 27.191 38.279 27.191C56.0853 27.191 56.0853 2.37109 73.8916 2.37109C91.6978 2.37109 91.6978 27.191 109.462 27.191C127.269 27.191 127.269 2.37109 145.033 2.37109C162.84 2.37109 162.84 27.191 180.604 27.191C198.411 27.191 198.411 2.37109 216.216 2.37109C234.023 2.37109 234.023 27.191 251.829 27.191C269.635 27.191 269.635 2.37109 287.441 2.37109C305.248 2.37109 305.248 27.191 323.054 27.191C340.86 27.191 340.86 2.37109 358.667 2.37109" stroke="#F7D4D4" stroke-width="4" stroke-miterlimit="10" stroke-linecap="round"/>
</svg>
