<svg width="404" height="454" viewBox="0 0 404 454" fill="none" xmlns="http://www.w3.org/2000/svg">
<path d="M-153.594 -84.4626C-173.568 -69.6759 -183.914 -49.1293 -180.701 -32.1293C-174.834 -1.14259 -124.714 14.0307 -92.7009 1.20408C-52.5009 -14.9026 -39.6609 -75.6359 -56.7009 -113.463C-81.2343 -167.929 -171.488 -183.236 -220.701 -149.463C-278.101 -110.063 -275.434 -6.78259 -226.034 53.2041C-181.048 107.844 -95.9543 128.231 -35.3676 91.8707C37.7257 47.9907 36.6724 -55.4093 12.6324 -116.129C-23.7143 -207.956 -133.408 -254.676 -228.701 -237.463C-315.008 -221.863 -391.834 -153.396 -404.701 -74.7959C-428.074 68.0308 -238.741 234.924 -83.3676 195.871C3.92572 173.924 63.2457 94.2174 85.9657 22.5374C88.3524 14.9907 128.086 -117.903 43.2991 -222.796C-47.1543 -334.703 -199.261 -315.649 -238.034 -310.796C-272.861 -306.436 -405.554 -289.809 -474.034 -177.463C-556.954 -41.4093 -473.434 116.457 -462.034 137.204C-385.808 275.924 -203.021 379.511 -20.7009 322.537C130.166 275.391 234.019 132.897 237.966 -16.1293C242.046 -170.476 137.366 -272.103 112.632 -296.129C-17.5543 -422.529 -210.954 -442.129 -359.368 -392.129C-388.461 -382.329 -610.434 -303.996 -640.701 -120.129C-659.994 -2.90259 -590.861 93.4575 -532.701 174.537C-482.648 244.311 -401.741 357.084 -247.368 395.871C-47.4609 446.084 112.432 331.231 131.299 317.204C169.979 288.444 286.579 192.137 309.966 22.5374C312.886 1.35074 332.526 -159.703 225.966 -298.796C97.8457 -466.023 -113.634 -472.209 -202.034 -474.796C-274.594 -476.916 -587.728 -486.076 -707.368 -270.796C-808.181 -89.3959 -701.648 125.457 -671.368 186.537C-644.954 239.791 -575.834 374.257 -416.701 453.204C-393.661 464.631 -184.368 564.191 37.9657 465.204C177.766 402.964 247.166 295.857 288.632 231.871C335.352 159.764 426.886 18.5107 395.299 -156.129C375.339 -266.516 315.446 -339.036 279.299 -382.796C245.192 -424.103 140.939 -550.329 -28.7009 -580.129C-99.4476 -592.556 -177.194 -574.196 -332.701 -537.463C-495.634 -498.983 -577.101 -479.729 -638.034 -432.129C-773.528 -326.249 -801.608 -162.903 -807.368 -129.463C-846.274 96.8174 -718.994 272.911 -676.354 325.004" stroke="white" stroke-opacity="0.4" stroke-width="4" stroke-miterlimit="10"/>
</svg>
