<svg width="526" height="454" viewBox="0 0 526 454" fill="none" xmlns="http://www.w3.org/2000/svg">
<path d="M663.072 472.87C643.099 487.657 632.752 508.204 635.966 525.204C641.832 556.19 691.952 571.364 723.966 558.537C764.166 542.43 777.006 481.697 759.966 443.87C735.432 389.404 645.179 374.097 595.966 407.87C538.566 447.27 541.232 550.55 590.632 610.537C635.619 665.177 720.712 685.564 781.299 649.204C854.392 605.324 853.339 501.924 829.299 441.204C792.952 349.377 683.259 302.657 587.966 319.87C501.659 335.47 424.832 403.937 411.966 482.537C388.592 625.364 577.926 792.257 733.299 753.204C820.592 731.257 879.912 651.55 902.632 579.87C905.019 572.324 944.752 439.43 859.966 334.537C769.512 222.63 617.406 241.684 578.632 246.537C543.806 250.897 411.112 267.524 342.632 379.87C259.712 515.924 343.232 673.79 354.632 694.537C430.859 833.257 613.646 936.844 795.966 879.87C946.832 832.724 1050.69 690.23 1054.63 541.204C1058.71 386.857 954.032 285.23 929.299 261.204C799.112 134.804 605.712 115.204 457.299 165.204C428.206 175.004 206.232 253.337 175.966 437.204C156.672 554.43 225.806 650.79 283.966 731.87C334.019 801.644 414.926 914.417 569.299 953.204C769.206 1003.42 929.099 888.564 947.966 874.537C986.646 845.777 1103.25 749.47 1126.63 579.87C1129.55 558.684 1149.19 397.63 1042.63 258.537C914.512 91.3104 703.032 85.1237 614.632 82.5371C542.072 80.4171 228.939 71.2571 109.299 286.537C8.48569 467.937 115.019 682.79 145.299 743.87C171.712 797.124 240.832 931.59 399.966 1010.54C423.006 1021.96 632.299 1121.52 854.632 1022.54C994.432 960.297 1063.83 853.19 1105.3 789.204C1152.02 717.097 1243.55 575.844 1211.97 401.204C1192.01 290.817 1132.11 218.297 1095.97 174.537C1061.86 133.23 957.606 7.00374 787.966 -22.7963C717.219 -35.2229 639.472 -16.8629 483.966 19.8704C321.032 58.3504 239.566 77.6037 178.632 125.204C43.139 231.084 15.059 394.43 9.29902 427.87C-29.6076 654.15 97.6724 830.244 140.312 882.337" stroke="white" stroke-opacity="0.4" stroke-width="4" stroke-miterlimit="10"/>
</svg>
